#Comment line ignore any data following # character 
#Hierarchical Translation and Rotation (.htr) file 
[Header]	
#Header keywords are followed by a single value 
FileType HTR		#Single word string
DataType HTRS		#Translation followed by rotation and scale data
FileVersion 1		#integer
NumSegments 84		#integer
NumFrames 2		#integer
DataFrameRate 30		#integer, data frame rate in this file
EulerRotationOrder ZYX
CalibrationUnits mm
RotationUnits Degrees
GlobalAxisofGravity Y
BoneLengthAxis Y
ScaleFactor 1.00
[SegmentNames&Hierarchy]
#CHILD	PARENT
MASTER GLOBAL
root MASTER
chest root
L_mid_tent01 root
R_mid_tent01 root
spine01 root
Bip01_Neck chest
L_humerus chest
R_humerus chest
weapon_bone chest
Bip01_Head Bip01_Neck
eye_left_bone Bip01_Head
eye_right_bone Bip01_Head
L_forearm L_humerus
L_front_hand L_forearm
L_weapon_bone L_forearm
L_front_hand01_01 L_front_hand
L_front_hand02_01 L_front_hand
L_front_hand03_01 L_front_hand
L_front_hand01_02 L_front_hand01_01
L_front_hand02_02 L_front_hand02_01
L_front_hand03_02 L_front_hand03_01
R_forearm R_humerus
R_front_hand R_forearm
R_weapon_bone R_forearm
R_front_hand01_01 R_front_hand
R_front_hand02_01 R_front_hand
R_front_hand03_01 R_front_hand
R_front_hand01_02 R_front_hand01_01
R_front_hand02_02 R_front_hand02_01
R_front_hand03_02 R_front_hand03_01
null_rope01_connect L_mid_tent01
Rope1_Seg01 null_rope01_connect
Rope1_Seg02 Rope1_Seg01
Rope1_Seg03 Rope1_Seg02
Rope1_Seg04 Rope1_Seg03
Rope1_Seg05 Rope1_Seg04
Rope1_Seg06 Rope1_Seg05
Rope1_Seg07 Rope1_Seg06
Rope1_Seg09 Rope1_Seg07
L_mid_hand01 Rope1_Seg09
L_mid_hand02 Rope1_Seg09
L_mid_hand03 Rope1_Seg09
null_rope02_connect R_mid_tent01
Rope2_Seg01 null_rope02_connect
Rope2_Seg02 Rope2_Seg01
Rope2_Seg03 Rope2_Seg02
Rope2_Seg04 Rope2_Seg03
Rope2_Seg05 Rope2_Seg04
Rope2_Seg06 Rope2_Seg05
Rope2_Seg07 Rope2_Seg06
Rope2_Seg09 Rope2_Seg07
R_mid_hand01 Rope2_Seg09
R_mid_hand02 Rope2_Seg09
R_mid_hand03 Rope2_Seg09
spine02 spine01
spine03 spine02
pelvis spine03
null_rope03_connect pelvis
null_rope04_connect pelvis
Rope3_Seg01 null_rope03_connect
Rope3_Seg02 Rope3_Seg01
Rope3_Seg03 Rope3_Seg02
Rope3_Seg04 Rope3_Seg03
Rope3_Seg05 Rope3_Seg04
Rope3_Seg06 Rope3_Seg05
Rope3_Seg07 Rope3_Seg06
Rope3_Seg08 Rope3_Seg07
Rope3_Seg09 Rope3_Seg08
R_rear_hand01 Rope3_Seg09
R_rear_hand02 Rope3_Seg09
R_rear_hand03 Rope3_Seg09
Rope4_Seg01 null_rope04_connect
Rope4_Seg02 Rope4_Seg01
Rope4_Seg03 Rope4_Seg02
Rope4_Seg04 Rope4_Seg03
Rope4_Seg05 Rope4_Seg04
Rope4_Seg06 Rope4_Seg05
Rope4_Seg07 Rope4_Seg06
Rope4_Seg08 Rope4_Seg07
Rope4_Seg09 Rope4_Seg08
L_rear_hand01 Rope4_Seg09
L_rear_hand02 Rope4_Seg09
L_rear_hand03 Rope4_Seg09
[BasePosition]
#SegmentName Tx, Ty, Tz, Rx, Ry, Rz, BoneLength
MASTER 0.000000 0.000000 0.000000 -90.000000 0.000000 0.000000 10.000000 
root 0.000000 0.000000 0.000000 0.000000 0.000000 0.000000 10.000000 
chest 0.000000 0.000000 0.000000 0.000000 0.000000 0.000000 10.000000 
L_mid_tent01 0.000000 0.000000 0.000000 0.000000 0.000000 0.000000 10.000000 
R_mid_tent01 0.000000 0.000000 0.000000 0.000000 0.000000 0.000000 10.000000 
spine01 0.000000 0.000000 0.000000 0.000000 0.000000 0.000000 10.000000 
Bip01_Neck 0.000000 0.000000 0.000000 0.000000 0.000000 0.000000 10.000000 
L_humerus 0.000000 0.000000 0.000000 0.000000 0.000000 0.000000 10.000000 
R_humerus 0.000000 0.000000 0.000000 0.000000 0.000000 0.000000 10.000000 
weapon_bone 0.000000 0.000000 0.000000 0.000000 0.000000 0.000000 10.000000 
Bip01_Head 0.000000 0.000000 0.000000 0.000000 0.000000 0.000000 10.000000 
eye_left_bone 0.000000 0.000000 0.000000 0.000000 0.000000 0.000000 10.000000 
eye_right_bone 0.000000 0.000000 0.000000 0.000000 0.000000 0.000000 10.000000 
L_forearm 0.000000 0.000000 0.000000 0.000000 0.000000 0.000000 10.000000 
L_front_hand 0.000000 0.000000 0.000000 0.000000 0.000000 0.000000 10.000000 
L_weapon_bone 0.000000 0.000000 0.000000 0.000000 0.000000 0.000000 10.000000 
L_front_hand01_01 0.000000 0.000000 0.000000 0.000000 0.000000 0.000000 10.000000 
L_front_hand02_01 0.000000 0.000000 0.000000 0.000000 0.000000 0.000000 10.000000 
L_front_hand03_01 0.000000 0.000000 0.000000 0.000000 0.000000 0.000000 10.000000 
L_front_hand01_02 0.000000 0.000000 0.000000 0.000000 0.000000 0.000000 10.000000 
L_front_hand02_02 0.000000 0.000000 0.000000 0.000000 0.000000 0.000000 10.000000 
L_front_hand03_02 0.000000 0.000000 0.000000 0.000000 0.000000 0.000000 10.000000 
R_forearm 0.000000 0.000000 0.000000 0.000000 0.000000 0.000000 10.000000 
R_front_hand 0.000000 0.000000 0.000000 0.000000 0.000000 0.000000 10.000000 
R_weapon_bone 0.000000 0.000000 0.000000 0.000000 0.000000 0.000000 10.000000 
R_front_hand01_01 0.000000 0.000000 0.000000 0.000000 0.000000 0.000000 10.000000 
R_front_hand02_01 0.000000 0.000000 0.000000 0.000000 0.000000 0.000000 10.000000 
R_front_hand03_01 0.000000 0.000000 0.000000 0.000000 0.000000 0.000000 10.000000 
R_front_hand01_02 0.000000 0.000000 0.000000 0.000000 0.000000 0.000000 10.000000 
R_front_hand02_02 0.000000 0.000000 0.000000 0.000000 0.000000 0.000000 10.000000 
R_front_hand03_02 0.000000 0.000000 0.000000 0.000000 0.000000 0.000000 10.000000 
null_rope01_connect 0.000000 0.000000 0.000000 0.000000 0.000000 0.000000 10.000000 
Rope1_Seg01 0.000000 0.000000 0.000000 0.000000 0.000000 0.000000 10.000000 
Rope1_Seg02 0.000000 0.000000 0.000000 0.000000 0.000000 0.000000 10.000000 
Rope1_Seg03 0.000000 0.000000 0.000000 0.000000 0.000000 0.000000 10.000000 
Rope1_Seg04 0.000000 0.000000 0.000000 0.000000 0.000000 0.000000 10.000000 
Rope1_Seg05 0.000000 0.000000 0.000000 0.000000 0.000000 0.000000 10.000000 
Rope1_Seg06 0.000000 0.000000 0.000000 0.000000 0.000000 0.000000 10.000000 
Rope1_Seg07 0.000000 0.000000 0.000000 0.000000 0.000000 0.000000 10.000000 
Rope1_Seg09 0.000000 0.000000 0.000000 0.000000 0.000000 0.000000 10.000000 
L_mid_hand01 0.000000 0.000000 0.000000 0.000000 0.000000 0.000000 10.000000 
L_mid_hand02 0.000000 0.000000 0.000000 0.000000 0.000000 0.000000 10.000000 
L_mid_hand03 0.000000 0.000000 0.000000 0.000000 0.000000 0.000000 10.000000 
null_rope02_connect 0.000000 0.000000 0.000000 0.000000 0.000000 0.000000 10.000000 
Rope2_Seg01 0.000000 0.000000 0.000000 0.000000 0.000000 0.000000 10.000000 
Rope2_Seg02 0.000000 0.000000 0.000000 0.000000 0.000000 0.000000 10.000000 
Rope2_Seg03 0.000000 0.000000 0.000000 0.000000 0.000000 0.000000 10.000000 
Rope2_Seg04 0.000000 0.000000 0.000000 0.000000 0.000000 0.000000 10.000000 
Rope2_Seg05 0.000000 0.000000 0.000000 0.000000 0.000000 0.000000 10.000000 
Rope2_Seg06 0.000000 0.000000 0.000000 0.000000 0.000000 0.000000 10.000000 
Rope2_Seg07 0.000000 0.000000 0.000000 0.000000 0.000000 0.000000 10.000000 
Rope2_Seg09 0.000000 0.000000 0.000000 0.000000 0.000000 0.000000 10.000000 
R_mid_hand01 0.000000 0.000000 0.000000 0.000000 0.000000 0.000000 10.000000 
R_mid_hand02 0.000000 0.000000 0.000000 0.000000 0.000000 0.000000 10.000000 
R_mid_hand03 0.000000 0.000000 0.000000 0.000000 0.000000 0.000000 10.000000 
spine02 0.000000 0.000000 0.000000 0.000000 0.000000 0.000000 10.000000 
spine03 0.000000 0.000000 0.000000 0.000000 0.000000 0.000000 10.000000 
pelvis 0.000000 0.000000 0.000000 0.000000 0.000000 0.000000 10.000000 
null_rope03_connect 0.000000 0.000000 0.000000 0.000000 0.000000 0.000000 10.000000 
null_rope04_connect 0.000000 0.000000 0.000000 0.000000 0.000000 0.000000 10.000000 
Rope3_Seg01 0.000000 0.000000 0.000000 0.000000 0.000000 0.000000 10.000000 
Rope3_Seg02 0.000000 0.000000 0.000000 0.000000 0.000000 0.000000 10.000000 
Rope3_Seg03 0.000000 0.000000 0.000000 0.000000 0.000000 0.000000 10.000000 
Rope3_Seg04 0.000000 0.000000 0.000000 0.000000 0.000000 0.000000 10.000000 
Rope3_Seg05 0.000000 0.000000 0.000000 0.000000 0.000000 0.000000 10.000000 
Rope3_Seg06 0.000000 0.000000 0.000000 0.000000 0.000000 0.000000 10.000000 
Rope3_Seg07 0.000000 0.000000 0.000000 0.000000 0.000000 0.000000 10.000000 
Rope3_Seg08 0.000000 0.000000 0.000000 0.000000 0.000000 0.000000 10.000000 
Rope3_Seg09 0.000000 0.000000 0.000000 0.000000 0.000000 0.000000 10.000000 
R_rear_hand01 0.000000 0.000000 0.000000 0.000000 0.000000 0.000000 10.000000 
R_rear_hand02 0.000000 0.000000 0.000000 0.000000 0.000000 0.000000 10.000000 
R_rear_hand03 0.000000 0.000000 0.000000 0.000000 0.000000 0.000000 10.000000 
Rope4_Seg01 0.000000 0.000000 0.000000 0.000000 0.000000 0.000000 10.000000 
Rope4_Seg02 0.000000 0.000000 0.000000 0.000000 0.000000 0.000000 10.000000 
Rope4_Seg03 0.000000 0.000000 0.000000 0.000000 0.000000 0.000000 10.000000 
Rope4_Seg04 0.000000 0.000000 0.000000 0.000000 0.000000 0.000000 10.000000 
Rope4_Seg05 0.000000 0.000000 0.000000 0.000000 0.000000 0.000000 10.000000 
Rope4_Seg06 0.000000 0.000000 0.000000 0.000000 0.000000 0.000000 10.000000 
Rope4_Seg07 0.000000 0.000000 0.000000 0.000000 0.000000 0.000000 10.000000 
Rope4_Seg08 0.000000 0.000000 0.000000 0.000000 0.000000 0.000000 10.000000 
Rope4_Seg09 0.000000 0.000000 0.000000 0.000000 0.000000 0.000000 10.000000 
L_rear_hand01 0.000000 0.000000 0.000000 0.000000 0.000000 0.000000 10.000000 
L_rear_hand02 0.000000 0.000000 0.000000 0.000000 0.000000 0.000000 10.000000 
L_rear_hand03 0.000000 0.000000 0.000000 0.000000 0.000000 0.000000 10.000000 
#Beginning of Data. Separated by tabs
#Fr	Tx	Ty	Tz	Rx	Ry	Rz	SF
[MASTER]
3 -187.816696 149.240433 -39.523823 0.001660 0.001660 0.001660 243.125381
4 -375.632660 298.480316 -79.047493 0.001660 0.001660 0.001660 486.249847
[root]
3 72.064301 -119.474091 488.803070 -10.611464 8.039946 -96.593735 508.326447
4 168.729736 -122.245865 540.231750 -13.623769 6.239682 -91.200729 579.020020
[chest]
3 -84.512650 -34.090519 0.000000 50.905048 26.224245 -171.033569 91.129311
4 -84.512650 -34.090519 0.000000 45.610432 23.469872 -175.370102 91.129311
[L_mid_tent01]
3 27.298950 22.179323 -249.918747 -9.540356 16.314430 56.318150 252.381729
4 27.298964 22.179312 -249.918747 -11.569203 14.852244 50.452877 252.381729
[R_mid_tent01]
3 23.228794 24.509907 226.238495 149.266525 -49.150345 56.187466 228.744751
4 23.228794 24.509907 226.238495 144.513977 -56.795311 51.816906 228.744751
[spine01]
3 -0.361383 -0.195265 0.000000 0.001743 0.001572 5.889618 0.410763
4 -0.361383 -0.195265 0.000000 0.001732 0.001584 5.122145 0.410763
[Bip01_Neck]
3 165.484543 71.581718 0.000119 176.643677 -1.657966 43.431908 180.302734
4 165.484543 71.581718 0.000119 176.643677 -1.657967 43.431915 180.302734
[L_humerus]
3 -13.983130 -135.272980 -120.471481 154.772400 48.629410 -126.474365 181.680161
4 -13.983130 -135.272980 -120.471481 165.686569 14.761701 -133.405319 181.680161
[R_humerus]
3 -13.983309 -135.273102 125.287651 -167.506134 -43.067299 -110.317139 184.909012
4 -13.983309 -135.273102 125.287651 -173.232727 -13.262051 -123.306175 184.909012
[weapon_bone]
3 235.964890 -300.705902 0.000000 0.000000 -89.951546 -128.212341 382.234833
4 235.964890 -300.705902 0.000000 0.000000 -89.951546 -128.212341 382.234833
[Bip01_Head]
3 213.337173 186.013748 7.928151 6.824397 0.793272 -38.260971 283.154938
4 213.341202 186.002411 8.074162 5.788033 0.884295 -38.458965 283.154663
[eye_left_bone]
3 -24.626970 125.451866 -64.772606 0.000000 -90.000000 -99.840431 143.318359
4 -24.626970 125.451866 -64.772606 0.000000 -90.000000 -99.840431 143.318359
[eye_right_bone]
3 -24.626970 125.451866 64.327362 0.000000 -89.965736 80.156380 143.117676
4 -24.626970 125.451866 64.327362 0.000000 -89.972023 80.156387 143.117676
[L_forearm]
3 322.776093 0.000000 -0.000119 0.000429 -0.002308 -111.059807 322.776093
4 322.776093 0.000000 -0.000119 0.000428 -0.002308 -110.990791 322.776093
[L_front_hand]
3 241.149185 -0.042021 -3.300071 -178.667953 -1.835447 -27.422350 241.171753
4 241.149185 -0.042021 -3.300071 -178.667953 -1.835447 -27.422350 241.171753
[L_weapon_bone]
3 156.183838 0.000000 0.000000 0.000014 0.000007 0.000001 156.183838
4 156.183838 0.000000 0.000000 0.000014 0.000007 0.000001 156.183838
[L_front_hand01_01]
3 86.095154 20.947098 -0.655860 -0.334039 -0.500940 71.473785 88.609184
4 86.095154 20.947098 -0.655860 -0.343298 -0.494452 72.684837 88.609184
[L_front_hand02_01]
3 86.935165 -11.437475 24.513514 148.678986 -58.017021 -54.691486 91.046425
4 86.935165 -11.437475 24.513514 150.381836 -58.634865 -56.693291 91.046425
[L_front_hand03_01]
3 86.637497 -14.123976 -20.424902 -148.599625 56.232182 -56.378220 90.126129
4 86.637497 -14.123976 -20.424902 -150.184586 56.852543 -58.280556 90.126129
[L_front_hand01_02]
3 71.020905 -0.000179 0.000030 0.000322 -0.002325 -105.750679 71.020905
4 71.020905 -0.000179 0.000030 0.000323 -0.002325 -105.841873 71.020905
[L_front_hand02_02]
3 71.020927 -0.000119 0.000060 0.000322 -0.002325 -105.750679 71.020927
4 71.020927 -0.000119 0.000060 0.000323 -0.002325 -105.841873 71.020927
[L_front_hand03_02]
3 71.020905 -0.000060 0.000060 0.000322 -0.002325 -105.750679 71.020905
4 71.020905 -0.000060 0.000060 0.000323 -0.002325 -105.841873 71.020905
[R_forearm]
3 322.776428 -0.000060 0.000030 0.201145 0.068056 -109.710281 322.776428
4 322.776428 -0.000060 0.000030 0.201177 0.067961 -109.655846 322.776428
[R_front_hand]
3 238.847015 -0.006795 2.210259 -2.635298 -10.645462 -26.312506 238.857239
4 238.847015 -0.006795 2.210259 -2.635298 -10.645461 -26.312506 238.857239
[R_weapon_bone]
3 155.664093 0.002503 -0.000030 0.003487 0.001180 -90.988930 155.664078
4 155.664093 0.002503 -0.000030 0.003487 0.001180 -90.988930 155.664078
[R_front_hand01_01]
3 87.624611 14.231146 22.918642 -153.536880 -59.633747 60.470901 91.683487
4 87.624611 14.231146 22.918642 -154.633484 -59.950619 61.746037 91.683487
[R_front_hand02_01]
3 89.356956 14.367283 -19.491137 153.567596 57.992992 62.531033 92.579636
4 89.356956 14.367283 -19.491137 154.602661 58.302849 63.744389 92.579636
[R_front_hand03_01]
3 87.286232 -22.307278 -0.143439 0.155617 -0.427176 -75.061508 90.091743
4 87.286232 -22.307278 -0.143439 0.162155 -0.423168 -75.767906 90.091743
[R_front_hand01_02]
3 71.020905 0.000060 0.000119 0.002323 -0.000334 106.381706 71.020905
4 71.020905 0.000060 0.000119 0.002323 -0.000334 106.381721 71.020905
[R_front_hand02_02]
3 71.020844 -0.000030 -0.000119 0.002323 -0.000334 106.381706 71.020836
4 71.020844 -0.000030 -0.000119 0.002323 -0.000334 106.381721 71.020836
[R_front_hand03_02]
3 71.020905 0.000000 0.000030 0.002323 -0.000334 106.381706 71.020905
4 71.020905 0.000000 0.000030 0.002323 -0.000334 106.381721 71.020905
[null_rope01_connect]
3 328.732483 0.000000 -0.000238 -12.636710 -28.176136 40.059566 328.732483
4 328.732483 0.000000 -0.000238 -7.349621 -32.222954 39.585258 328.732483
[Rope1_Seg01]
3 -0.000028 -0.000064 0.000013 -34.911785 57.655384 141.422134 0.000071
4 -0.000023 -0.000063 0.000020 -97.179535 69.685997 87.549454 0.000070
[Rope1_Seg02]
3 139.999863 -0.000179 0.000000 -10.049290 21.551540 -10.260719 139.999863
4 139.999863 -0.000179 0.000000 -14.259979 16.599955 -1.479794 139.999863
[Rope1_Seg03]
3 139.999924 0.000060 -0.000060 -33.631283 27.246611 -3.459926 139.999924
4 139.999924 0.000060 -0.000060 -25.992878 18.245911 5.915800 139.999924
[Rope1_Seg04]
3 139.999924 -0.000060 -0.000119 -33.042953 16.469120 5.081453 139.999924
4 139.999924 -0.000060 -0.000119 -20.522869 11.048027 11.120764 139.999924
[Rope1_Seg05]
3 139.999832 0.000119 -0.000060 -50.661892 21.511606 1.478521 139.999832
4 139.999832 0.000119 -0.000060 -26.384979 18.584028 4.872263 139.999832
[Rope1_Seg06]
3 139.999954 0.000119 -0.000060 -34.028824 11.330655 14.663086 139.999954
4 139.999954 0.000119 -0.000060 -27.202675 15.547263 10.539949 139.999954
[Rope1_Seg07]
3 139.999985 0.000060 0.000000 -7.771685 -0.596672 9.108362 139.999985
4 139.999985 0.000060 0.000000 -10.220665 3.266350 8.864244 139.999985
[Rope1_Seg09]
3 121.602913 0.000119 -0.000089 -89.793175 -1.359789 0.847147 121.602913
4 121.602913 0.000119 -0.000089 -89.793175 -1.359789 0.847147 121.602913
[L_mid_hand01]
3 103.859421 1.038730 8.195221 115.408531 -54.701748 -21.720676 104.187431
4 103.859421 1.038730 8.195221 117.949982 -58.067551 -24.772402 104.187431
[L_mid_hand02]
3 105.572853 -4.139662 -10.864139 -156.176682 38.798794 -54.229790 106.211075
4 105.572853 -4.139662 -10.864139 -159.048325 40.233376 -58.742634 106.211075
[L_mid_hand03]
3 104.641464 17.579376 -3.913581 -10.554408 15.607308 59.190624 106.179977
4 104.641464 17.579376 -3.913581 -9.494793 16.261581 63.045036 106.179977
[null_rope02_connect]
3 328.732849 0.000179 -0.000119 -134.862061 -3.851640 -51.777084 328.732849
4 328.732849 0.000179 -0.000119 -124.625725 -2.834652 -52.598022 328.732849
[Rope2_Seg01]
3 0.000052 0.000166 0.000000 -7.913942 -47.150200 169.772141 0.000174
4 0.000050 0.000172 0.000000 3.641870 -61.396107 159.023102 0.000180
[Rope2_Seg02]
3 139.999741 -0.000060 -0.000119 10.016947 -16.926968 -22.631222 139.999756
4 139.999741 -0.000060 -0.000119 2.160125 -17.353951 -10.428736 139.999756
[Rope2_Seg03]
3 140.000107 0.000030 0.000000 7.338698 -22.846899 -26.447325 140.000107
4 140.000107 0.000030 0.000000 -1.628803 -23.190794 -15.375837 140.000107
[Rope2_Seg04]
3 139.999802 0.000000 -0.000060 -0.339487 -11.456880 -11.700312 139.999802
4 139.999802 0.000000 -0.000060 -5.633562 -14.850302 -11.485643 139.999802
[Rope2_Seg05]
3 139.999985 -0.000060 0.000119 -1.700467 -10.814944 -7.623782 139.999985
4 139.999985 -0.000060 0.000119 -11.829186 -21.423021 -12.623666 139.999985
[Rope2_Seg06]
3 139.999893 -0.000030 -0.000119 -8.160100 -27.856434 -19.909733 139.999893
4 139.999893 -0.000030 -0.000119 -28.493200 -27.416845 -27.139723 139.999893
[Rope2_Seg07]
3 139.999893 0.000060 -0.000060 -15.746745 -19.781164 -23.450428 139.999893
4 139.999893 0.000060 -0.000060 -14.570880 -3.635653 -18.000439 139.999893
[Rope2_Seg09]
3 121.338966 0.000089 -0.000060 33.793236 -1.359788 -0.847141 121.338966
4 121.338966 0.000089 -0.000060 33.793236 -1.359788 -0.847141 121.338966
[R_mid_hand01]
3 104.680779 11.144459 -10.335981 -36.796608 32.389671 38.332970 105.778534
4 104.680779 11.144459 -10.335981 -35.659054 33.675755 40.429832 105.778534
[R_mid_hand02]
3 104.070427 2.443552 8.231699 70.110451 -43.179699 14.438774 104.424065
4 104.070427 2.443552 8.231699 69.379761 -45.224792 15.491563 104.424065
[R_mid_hand03]
3 106.028137 -11.221827 -5.996406 -170.065155 12.366957 -48.017445 106.788818
4 106.028137 -11.221827 -5.996406 -170.548019 12.734514 -50.222633 106.788818
[spine02]
3 129.756927 0.001550 0.000119 0.527205 -4.025300 -15.289460 129.756927
4 129.756927 0.001550 0.000119 0.518781 -4.026413 -15.189320 129.756927
[spine03]
3 78.614021 0.080951 -4.899008 1.995416 3.779123 17.990053 78.766556
4 78.614006 0.080984 -4.899000 1.990738 3.781666 17.917816 78.766541
[pelvis]
3 169.435242 0.051022 0.000000 -0.011527 -0.191331 -0.987473 169.435257
4 169.435242 0.051022 0.000000 -0.009635 -0.191436 -2.120155 169.435257
[null_rope03_connect]
3 -1.257226 -2.466202 137.391083 -8.844671 -8.372580 88.964218 137.418976
4 -1.257226 -2.466202 137.391083 -6.268600 -12.220146 85.447899 137.418976
[null_rope04_connect]
3 -1.259640 -2.480268 -137.844437 -8.844671 -8.372580 88.964218 137.872513
4 -1.259640 -2.480268 -137.844437 -6.268600 -12.220146 85.447899 137.872513
[Rope3_Seg01]
3 0.000000 0.000000 0.000000 39.936600 -51.010536 -99.799141 0.000000
4 0.000000 0.000000 0.000000 27.157015 -48.823921 -84.283234 0.000000
[Rope3_Seg02]
3 139.999924 -0.000119 0.000060 2.959141 -1.456943 12.307766 139.999924
4 139.999924 -0.000119 0.000060 1.436660 7.417247 16.011566 139.999924
[Rope3_Seg03]
3 139.999924 -0.000119 0.000119 1.581117 -2.352198 10.382543 139.999924
4 139.999924 -0.000119 0.000119 0.695530 6.811453 9.631348 139.999924
[Rope3_Seg04]
3 139.999924 0.000119 0.000000 0.569206 -2.762772 6.873621 139.999924
4 139.999924 0.000119 0.000000 -0.340756 3.781399 9.308608 139.999924
[Rope3_Seg05]
3 139.999924 -0.000238 0.000060 1.014503 8.384406 25.999853 139.999924
4 139.999924 -0.000238 0.000060 -4.387732 -0.060615 14.185264 139.999924
[Rope3_Seg06]
3 139.999893 -0.000119 -0.000060 -3.467483 10.920238 30.427618 139.999893
4 139.999893 -0.000119 -0.000060 -5.072809 -1.029540 10.244358 139.999893
[Rope3_Seg07]
3 139.999771 0.000060 -0.000119 -8.100958 2.599485 12.205291 139.999771
4 139.999771 0.000060 -0.000119 -3.530323 -0.765514 5.970625 139.999771
[Rope3_Seg08]
3 139.999985 -0.000060 0.000000 -7.158928 0.386698 5.991105 139.999985
4 139.999985 -0.000060 0.000000 -2.430308 -0.693352 3.633131 139.999985
[Rope3_Seg09]
3 90.185997 -0.000179 -0.000060 89.793228 -1.359877 -0.847183 90.185997
4 90.185997 -0.000179 -0.000060 89.793228 -1.359877 -0.847183 90.185997
[R_rear_hand01]
3 103.366196 -6.073594 -10.757982 -165.718872 20.328499 -43.170498 104.101845
4 103.366196 -6.073594 -10.757982 -166.818863 21.039267 -46.280457 104.101845
[R_rear_hand02]
3 100.509819 12.039542 -7.992327 -29.668047 26.160357 40.761963 101.543350
4 100.509819 12.039542 -7.992327 -28.339695 27.613882 43.697437 101.543350
[R_rear_hand03]
3 101.539970 5.215704 5.435467 82.115242 -43.756126 9.334552 101.819031
4 101.539970 5.215704 5.435467 81.685287 -46.725780 9.939903 101.819031
[Rope4_Seg01]
3 -0.000021 -0.000061 0.000000 -98.712425 63.758442 -92.248985 0.000065
4 -0.000022 -0.000073 0.000000 -44.381577 54.659561 -31.719004 0.000076
[Rope4_Seg02]
3 139.999985 0.000060 0.000119 0.097256 -14.483946 -2.164533 139.999985
4 139.999985 0.000060 0.000119 0.073860 -4.979801 -2.571005 139.999985
[Rope4_Seg03]
3 139.999924 0.000000 -0.000238 1.933868 -19.300987 -2.715636 139.999924
4 139.999924 0.000000 -0.000238 0.091914 -6.555087 -3.392489 139.999924
[Rope4_Seg04]
3 139.999985 0.000000 0.000119 4.448113 -18.169849 -1.582084 139.999985
4 139.999985 0.000000 0.000119 -0.110354 -8.768428 -4.882124 139.999985
[Rope4_Seg05]
3 139.999802 -0.000060 -0.000119 5.851524 -15.806301 -2.621216 139.999802
4 139.999802 -0.000060 -0.000119 0.122270 -11.146322 -5.667500 139.999802
[Rope4_Seg06]
3 139.999924 0.000000 0.000060 13.818259 -17.114908 -2.485478 139.999924
4 139.999924 0.000000 0.000060 1.025445 -7.739375 -3.111773 139.999924
[Rope4_Seg07]
3 139.999802 0.000000 0.000000 37.116009 -12.514187 1.767212 139.999802
4 139.999802 0.000000 0.000000 0.710143 -5.595777 -2.335727 139.999802
[Rope4_Seg08]
3 139.999924 0.000000 0.000119 38.585716 -5.317843 5.392319 139.999924
4 139.999924 0.000000 0.000119 -1.029990 -3.613272 -1.494930 139.999924
[Rope4_Seg09]
3 90.185791 0.000060 0.000060 -135.617828 2.228885 0.850567 90.185791
4 90.185791 0.000060 0.000060 -135.617828 2.228885 0.850567 90.185791
[L_rear_hand01]
3 101.696655 -8.392275 -7.654577 -22.018604 -32.726269 123.780815 102.329041
4 101.696655 -8.392275 -7.654577 -20.156328 -33.821564 120.381775 102.329041
[L_rear_hand02]
3 102.726799 -1.568258 5.773216 79.066765 58.522202 166.781097 102.900848
4 102.726799 -1.568258 5.773216 78.020538 61.506905 165.574356 102.900848
[L_rear_hand03]
3 104.552910 9.721220 -10.420293 -171.624756 -23.284348 -121.031639 105.519653
4 104.552910 9.721220 -10.420293 -172.933762 -23.694113 -117.741737 105.519653
